<!--
	Copyright 2025 Gabriel Bjørnager Jensen.

	This work is distributed under a Creative Com-
	mons Attribution-ShareAlike 4.0 International
	licence.
-->

<svg height="144" width="144" xmlns="http://www.w3.org/2000/svg">
	<mask id="glyph">
		<!-- D: -->
		<ellipse cx="104" cy="96" fill="white" rx="24" ry="32" />
		<ellipse cx="104" cy="96" fill="black" rx="8" ry="16" />

		<polygon fill="black" points="72,56 104,56 104,136 72,136" />

		<polygon fill="white" points="80,64 104,64 112,72 104,80 96,80 96,112 104,112 112,120 104,128 80,128 80,80 96,80" />

		<!-- I: -->
		<polygon fill="white" points="16,16 64,16 64,32 48,32 48,64 64,80 16,80 16,64 32,64 32,32 16,32" />
	</mask>

	<rect fill="#3435FF" height="100%" width="100%" x="0" y="0" /> <!-- oklch(50% 0.280700 270) -->
	<rect fill="#FFFFFF" height="100%" mask="url(#glyph)" width="100%" x="0" y="0" />
</svg>
